<svg version="1.1" xmlns="http://www.w3.org/2000/svg" viewBox="0 0 1368.809770856585 469.6969921557934" width="1368.809770856585" height="469.6969921557934"><!-- svg-source:excalidraw --><metadata></metadata><defs><style class="style-fonts">
      </style></defs><rect x="0" y="0" width="1368.809770856585" height="469.6969921557934" fill="#f8f9fa"></rect><g stroke-linecap="round" transform="translate(10 10) rotate(0 97.5 145)"><path d="M32 0 C60.82 0, 89.64 0, 163 0 C184.33 0, 195 10.67, 195 32 C195 105.53, 195 179.06, 195 258 C195 279.33, 184.33 290, 163 290 C119.06 290, 75.12 290, 32 290 C10.67 290, 0 279.33, 0 258 C0 203.03, 0 148.06, 0 32 C0 10.67, 10.67 0, 32 0" stroke="none" stroke-width="0" fill="#fff3e0"></path><path d="M32 0 C58.2 0, 84.4 0, 163 0 M32 0 C67.63 0, 103.26 0, 163 0 M163 0 C184.33 0, 195 10.67, 195 32 M163 0 C184.33 0, 195 10.67, 195 32 M195 32 C195 81.16, 195 130.31, 195 258 M195 32 C195 120.03, 195 208.06, 195 258 M195 258 C195 279.33, 184.33 290, 163 290 M195 258 C195 279.33, 184.33 290, 163 290 M163 290 C134.75 290, 106.49 290, 32 290 M163 290 C134.73 290, 106.46 290, 32 290 M32 290 C10.67 290, 0 279.33, 0 258 M32 290 C10.67 290, 0 279.33, 0 258 M0 258 C0 193.18, 0 128.36, 0 32 M0 258 C0 195.53, 0 133.06, 0 32 M0 32 C0 10.67, 10.67 0, 32 0 M0 32 C0 10.67, 10.67 0, 32 0" stroke="#e65100" stroke-width="2" fill="none"></path></g><g transform="translate(20 18) rotate(0 87.5 10)"><text x="87.5" y="11.63525390625" font-family="Helvetica, Segoe UI Emoji" font-size="13px" fill="#e65100" text-anchor="middle" style="white-space: pre;" direction="ltr" dominant-baseline="alphabetic">On-Premises (GCP)</text></g><g transform="translate(20 36) rotate(0 87.5 8)"><text x="87.5" y="9.84521484375" font-family="Helvetica, Segoe UI Emoji" font-size="11px" fill="#e65100" text-anchor="middle" style="white-space: pre;" direction="ltr" dominant-baseline="alphabetic">192.168.0.0/24</text></g><g stroke-linecap="round" transform="translate(25 95) rotate(0 82.5 40)"><path d="M20 0 C47.5 0, 75 0, 145 0 C158.33 0, 165 6.67, 165 20 C165 33.01, 165 46.03, 165 60 C165 73.33, 158.33 80, 145 80 C103.07 80, 61.14 80, 20 80 C6.67 80, 0 73.33, 0 60 C0 50.27, 0 40.54, 0 20 C0 6.67, 6.67 0, 20 0" stroke="none" stroke-width="0" fill="#ffe0b2"></path><path d="M20 0 C45 0, 70 0, 145 0 M20 0 C54 0, 88 0, 145 0 M145 0 C158.33 0, 165 6.67, 165 20 M145 0 C158.33 0, 165 6.67, 165 20 M165 20 C165 28.7, 165 37.4, 165 60 M165 20 C165 35.58, 165 51.16, 165 60 M165 60 C165 73.33, 158.33 80, 145 80 M165 60 C165 73.33, 158.33 80, 145 80 M145 80 C118.04 80, 91.08 80, 20 80 M145 80 C118.02 80, 91.04 80, 20 80 M20 80 C6.67 80, 0 73.33, 0 60 M20 80 C6.67 80, 0 73.33, 0 60 M0 60 C0 48.53, 0 37.06, 0 20 M0 60 C0 48.94, 0 37.89, 0 20 M0 20 C0 6.67, 6.67 0, 20 0 M0 20 C0 6.67, 6.67 0, 20 0" stroke="#e65100" stroke-width="1" fill="none"></path></g><g transform="translate(25 117) rotate(0 82.5 10)"><text x="82.5" y="12.5302734375" font-family="Helvetica, Segoe UI Emoji" font-size="14px" fill="#bf360c" text-anchor="middle" style="white-space: pre;" direction="ltr" dominant-baseline="alphabetic">GCP VM</text></g><g transform="translate(25 139) rotate(0 82.5 8)"><text x="82.5" y="9.84521484375" font-family="Helvetica, Segoe UI Emoji" font-size="11px" fill="#e65100" text-anchor="middle" style="white-space: pre;" direction="ltr" dominant-baseline="alphabetic">192.168.0.x</text></g><g stroke-opacity="0.4" fill-opacity="0.4" stroke-linecap="round" transform="translate(540.7577118316253 24.696992155793396) rotate(0 385 217.5)"><path d="M32 0 C187.31 0, 342.62 0, 738 0 C759.33 0, 770 10.67, 770 32 C770 152.71, 770 273.41, 770 403 C770 424.33, 759.33 435, 738 435 C501.19 435, 264.38 435, 32 435 C10.67 435, 0 424.33, 0 403 C0 312.76, 0 222.52, 0 32 C0 10.67, 10.67 0, 32 0" stroke="none" stroke-width="0" fill="#e3f2fd"></path><path d="M32 0 C173.2 0, 314.41 0, 738 0 M32 0 C224.03 0, 416.06 0, 738 0 M738 0 C759.33 0, 770 10.67, 770 32 M738 0 C759.33 0, 770 10.67, 770 32 M770 32 C770 112.69, 770 193.39, 770 403 M770 32 C770 176.51, 770 321.03, 770 403 M770 403 C770 424.33, 759.33 435, 738 435 M770 403 C770 424.33, 759.33 435, 738 435 M738 435 C585.74 435, 433.47 435, 32 435 M738 435 C585.63 435, 433.26 435, 32 435 M32 435 C10.67 435, 0 424.33, 0 403 M32 435 C10.67 435, 0 424.33, 0 403 M0 403 C0 296.59, 0 190.19, 0 32 M0 403 C0 300.45, 0 197.9, 0 32 M0 32 C0 10.67, 10.67 0, 32 0 M0 32 C0 10.67, 10.67 0, 32 0" stroke="#1565c0" stroke-width="2" fill="none"></path></g><g transform="translate(588.8097708565849 34.57134137834822) rotate(0 385 10)"><text x="385" y="12.5302734375" font-family="Helvetica, Segoe UI Emoji" font-size="14px" fill="#1565c0" text-anchor="middle" style="white-space: pre;" direction="ltr" dominant-baseline="alphabetic">Azure — West US 3</text></g><g stroke-linecap="round" transform="translate(597.381112234933 66.66660853794644) rotate(0 152.5 182.5)"><path d="M32 0 C85.02 0, 138.03 0, 273 0 C294.33 0, 305 10.67, 305 32 C305 129.93, 305 227.86, 305 333 C305 354.33, 294.33 365, 273 365 C192.16 365, 111.33 365, 32 365 C10.67 365, 0 354.33, 0 333 C0 259.78, 0 186.57, 0 32 C0 10.67, 10.67 0, 32 0" stroke="none" stroke-width="0" fill="#ede7f6"></path><path d="M32 0 C80.2 0, 128.4 0, 273 0 M32 0 C97.55 0, 163.1 0, 273 0 M273 0 C294.33 0, 305 10.67, 305 32 M273 0 C294.33 0, 305 10.67, 305 32 M305 32 C305 97.47, 305 162.94, 305 333 M305 32 C305 149.25, 305 266.49, 305 333 M305 333 C305 354.33, 294.33 365, 273 365 M305 333 C305 354.33, 294.33 365, 273 365 M273 365 C221.02 365, 169.05 365, 32 365 M273 365 C220.99 365, 168.97 365, 32 365 M32 365 C10.67 365, 0 354.33, 0 333 M32 365 C10.67 365, 0 354.33, 0 333 M0 333 C0 246.67, 0 160.34, 0 32 M0 333 C0 249.8, 0 166.6, 0 32 M0 32 C0 10.67, 10.67 0, 32 0 M0 32 C0 10.67, 10.67 0, 32 0" stroke="#4527a0" stroke-width="2" fill="none"></path></g><g transform="translate(597.381112234933 75.66660853794644) rotate(0 152.5 9)"><text x="152.5" y="10.740234375" font-family="Helvetica, Segoe UI Emoji" font-size="12px" fill="#4527a0" text-anchor="middle" style="white-space: pre;" direction="ltr" dominant-baseline="alphabetic">Hub VNet — 10.0.0.0/24</text></g><g stroke-linecap="round" transform="translate(614.381112234933 108.66660853794644) rotate(0 135.5 36)"><path d="M18 0 C69.7 0, 121.39 0, 253 0 C265 0, 271 6, 271 18 C271 29.71, 271 41.43, 271 54 C271 66, 265 72, 253 72 C174.18 72, 95.35 72, 18 72 C6 72, 0 66, 0 54 C0 45.24, 0 36.49, 0 18 C0 6, 6 0, 18 0" stroke="none" stroke-width="0" fill="#d1c4e9"></path><path d="M18 0 C65 0, 112 0, 253 0 M18 0 C81.92 0, 145.84 0, 253 0 M253 0 C265 0, 271 6, 271 18 M253 0 C265 0, 271 6, 271 18 M271 18 C271 25.83, 271 33.66, 271 54 M271 18 C271 32.02, 271 46.05, 271 54 M271 54 C271 66, 265 72, 253 72 M271 54 C271 66, 265 72, 253 72 M253 72 C202.32 72, 151.63 72, 18 72 M253 72 C202.28 72, 151.56 72, 18 72 M18 72 C6 72, 0 66, 0 54 M18 72 C6 72, 0 66, 0 54 M0 54 C0 43.67, 0 33.35, 0 18 M0 54 C0 44.05, 0 34.1, 0 18 M0 18 C0 6, 6 0, 18 0 M0 18 C0 6, 6 0, 18 0" stroke="#4527a0" stroke-width="1" fill="none"></path></g><g transform="translate(614.381112234933 126.66660853794644) rotate(0 135.5 10)"><text x="135.5" y="12.5302734375" font-family="Helvetica, Segoe UI Emoji" font-size="14px" fill="#311b92" text-anchor="middle" style="white-space: pre;" direction="ltr" dominant-baseline="alphabetic">ER Gateway</text></g><g transform="translate(614.381112234933 148.66660853794644) rotate(0 135.5 8)"><text x="135.5" y="9.84521484375" font-family="Helvetica, Segoe UI Emoji" font-size="11px" fill="#4527a0" text-anchor="middle" style="white-space: pre;" direction="ltr" dominant-baseline="alphabetic">ErGw1AZ → ErGwScale</text></g><g stroke-linecap="round" transform="translate(614.381112234933 218.66660853794644) rotate(0 135.5 31)"><path d="M15.5 0 C68.3 0, 121.09 0, 255.5 0 C265.83 0, 271 5.17, 271 15.5 C271 25.59, 271 35.67, 271 46.5 C271 56.83, 265.83 62, 255.5 62 C175 62, 94.5 62, 15.5 62 C5.17 62, 0 56.83, 0 46.5 C0 38.96, 0 31.42, 0 15.5 C0 5.17, 5.17 0, 15.5 0" stroke="none" stroke-width="0" fill="#d1c4e9"></path><path d="M15.5 0 C63.5 0, 111.5 0, 255.5 0 M15.5 0 C80.78 0, 146.06 0, 255.5 0 M255.5 0 C265.83 0, 271 5.17, 271 15.5 M255.5 0 C265.83 0, 271 5.17, 271 15.5 M271 15.5 C271 22.24, 271 28.99, 271 46.5 M271 15.5 C271 27.58, 271 39.65, 271 46.5 M271 46.5 C271 56.83, 265.83 62, 255.5 62 M271 46.5 C271 56.83, 265.83 62, 255.5 62 M255.5 62 C203.74 62, 151.98 62, 15.5 62 M255.5 62 C203.7 62, 151.91 62, 15.5 62 M15.5 62 C5.17 62, 0 56.83, 0 46.5 M15.5 62 C5.17 62, 0 56.83, 0 46.5 M0 46.5 C0 37.61, 0 28.72, 0 15.5 M0 46.5 C0 37.93, 0 29.36, 0 15.5 M0 15.5 C0 5.17, 5.17 0, 15.5 0 M0 15.5 C0 5.17, 5.17 0, 15.5 0" stroke="#4527a0" stroke-width="1" fill="none"></path></g><g transform="translate(614.381112234933 234.66660853794644) rotate(0 135.5 10)"><text x="135.5" y="12.5302734375" font-family="Helvetica, Segoe UI Emoji" font-size="14px" fill="#311b92" text-anchor="middle" style="white-space: pre;" direction="ltr" dominant-baseline="alphabetic">Azure Bastion</text></g><g transform="translate(614.381112234933 254.66660853794644) rotate(0 135.5 8)"><text x="135.5" y="9.84521484375" font-family="Helvetica, Segoe UI Emoji" font-size="11px" fill="#4527a0" text-anchor="middle" style="white-space: pre;" direction="ltr" dominant-baseline="alphabetic">No-Public-IP VM Access</text></g><g stroke-linecap="round" transform="translate(614.381112234933 316.66660853794644) rotate(0 135.5 44)"><path d="M22 0 C71.94 0, 121.87 0, 249 0 C263.67 0, 271 7.33, 271 22 C271 36.32, 271 50.63, 271 66 C271 80.67, 263.67 88, 249 88 C172.86 88, 96.72 88, 22 88 C7.33 88, 0 80.67, 0 66 C0 55.3, 0 44.59, 0 22 C0 7.33, 7.33 0, 22 0" stroke="none" stroke-width="0" fill="#d1c4e9"></path><path d="M22 0 C67.4 0, 112.8 0, 249 0 M22 0 C83.74 0, 145.49 0, 249 0 M249 0 C263.67 0, 271 7.33, 271 22 M249 0 C263.67 0, 271 7.33, 271 22 M271 22 C271 31.57, 271 41.14, 271 66 M271 22 C271 39.14, 271 56.28, 271 66 M271 66 C271 80.67, 263.67 88, 249 88 M271 66 C271 80.67, 263.67 88, 249 88 M249 88 C200.04 88, 151.08 88, 22 88 M249 88 C200.01 88, 151.02 88, 22 88 M22 88 C7.33 88, 0 80.67, 0 66 M22 88 C7.33 88, 0 80.67, 0 66 M0 66 C0 53.38, 0 40.76, 0 22 M0 66 C0 53.84, 0 41.68, 0 22 M0 22 C0 7.33, 7.33 0, 22 0 M0 22 C0 7.33, 7.33 0, 22 0" stroke="#4527a0" stroke-width="1" fill="none"></path></g><g transform="translate(724.581307547433 334.66660853794644) rotate(0 25.2998046875 17.5)"><text x="25.2998046875" y="12.5302734375" font-family="Helvetica, Segoe UI Emoji" font-size="14px" fill="#311b92" text-anchor="middle" style="white-space: pre;" direction="ltr" dominant-baseline="alphabetic">Hub VM</text><text x="25.2998046875" y="30.0302734375" font-family="Helvetica, Segoe UI Emoji" font-size="14px" fill="#311b92" text-anchor="middle" style="white-space: pre;" direction="ltr" dominant-baseline="alphabetic">10.0.0.4</text></g><g stroke-linecap="round" transform="translate(1064.1994050261262 42.42427677303169) rotate(0 105 95)"><path d="M32 0 C64.12 0, 96.24 0, 178 0 C199.33 0, 210 10.67, 210 32 C210 72.99, 210 113.99, 210 158 C210 179.33, 199.33 190, 178 190 C129.03 190, 80.06 190, 32 190 C10.67 190, 0 179.33, 0 158 C0 127.35, 0 96.7, 0 32 C0 10.67, 10.67 0, 32 0" stroke="none" stroke-width="0" fill="#e8f5e9"></path><path d="M32 0 C61.2 0, 90.4 0, 178 0 M32 0 C71.71 0, 111.42 0, 178 0 M178 0 C199.33 0, 210 10.67, 210 32 M178 0 C199.33 0, 210 10.67, 210 32 M210 32 C210 59.41, 210 86.81, 210 158 M210 32 C210 81.08, 210 130.16, 210 158 M210 158 C210 179.33, 199.33 190, 178 190 M210 158 C210 179.33, 199.33 190, 178 190 M178 190 C146.51 190, 115.02 190, 32 190 M178 190 C146.49 190, 114.98 190, 32 190 M32 190 C10.67 190, 0 179.33, 0 158 M32 190 C10.67 190, 0 179.33, 0 158 M0 158 C0 121.86, 0 85.72, 0 32 M0 158 C0 123.17, 0 88.34, 0 32 M0 32 C0 10.67, 10.67 0, 32 0 M0 32 C0 10.67, 10.67 0, 32 0" stroke="#1b5e20" stroke-width="2" fill="none"></path></g><g transform="translate(1064.1992940531147 52.030300388088506) rotate(0 105 9)"><text x="105" y="9.84521484375" font-family="Helvetica, Segoe UI Emoji" font-size="11px" fill="#1b5e20" text-anchor="middle" style="white-space: pre;" direction="ltr" dominant-baseline="alphabetic">az-spk1 — 10.0.1.0/24</text></g><g stroke-linecap="round" transform="translate(1082.1992940531147 93.0303003880885) rotate(0 87 55)"><path d="M27.5 0 C53.68 0, 79.86 0, 146.5 0 C164.83 0, 174 9.17, 174 27.5 C174 45.39, 174 63.29, 174 82.5 C174 100.83, 164.83 110, 146.5 110 C106.58 110, 66.67 110, 27.5 110 C9.17 110, 0 100.83, 0 82.5 C0 69.12, 0 55.74, 0 27.5 C0 9.17, 9.17 0, 27.5 0" stroke="none" stroke-width="0" fill="#c8e6c9"></path><path d="M27.5 0 C51.3 0, 75.1 0, 146.5 0 M27.5 0 C59.87 0, 92.23 0, 146.5 0 M146.5 0 C164.83 0, 174 9.17, 174 27.5 M146.5 0 C164.83 0, 174 9.17, 174 27.5 M174 27.5 C174 39.46, 174 51.43, 174 82.5 M174 27.5 C174 48.92, 174 70.35, 174 82.5 M174 82.5 C174 100.83, 164.83 110, 146.5 110 M174 82.5 C174 100.83, 164.83 110, 146.5 110 M146.5 110 C120.83 110, 95.17 110, 27.5 110 M146.5 110 C120.82 110, 95.13 110, 27.5 110 M27.5 110 C9.17 110, 0 100.83, 0 82.5 M27.5 110 C9.17 110, 0 100.83, 0 82.5 M0 82.5 C0 66.73, 0 50.95, 0 27.5 M0 82.5 C0 67.3, 0 52.09, 0 27.5 M0 27.5 C0 9.17, 9.17 0, 27.5 0 M0 27.5 C0 9.17, 9.17 0, 27.5 0" stroke="#1b5e20" stroke-width="1" fill="none"></path></g><g transform="translate(1133.0132588968647 118.0303003880885) rotate(0 36.18603515625 17.5)"><text x="36.18603515625" y="12.5302734375" font-family="Helvetica, Segoe UI Emoji" font-size="14px" fill="#1b5e20" text-anchor="middle" style="white-space: pre;" direction="ltr" dominant-baseline="alphabetic">Spoke1 VM</text><text x="36.18603515625" y="30.0302734375" font-family="Helvetica, Segoe UI Emoji" font-size="14px" fill="#1b5e20" text-anchor="middle" style="white-space: pre;" direction="ltr" dominant-baseline="alphabetic">10.0.1.4</text></g><g stroke-linecap="round" transform="translate(1054.762006487165 261.1903599330358) rotate(0 105 87.5)"><path d="M32 0 C64.12 0, 96.24 0, 178 0 C199.33 0, 210 10.67, 210 32 C210 68.11, 210 104.23, 210 143 C210 164.33, 199.33 175, 178 175 C129.03 175, 80.06 175, 32 175 C10.67 175, 0 164.33, 0 143 C0 116, 0 89, 0 32 C0 10.67, 10.67 0, 32 0" stroke="none" stroke-width="0" fill="#e8f5e9"></path><path d="M32 0 C61.2 0, 90.4 0, 178 0 M32 0 C71.71 0, 111.42 0, 178 0 M178 0 C199.33 0, 210 10.67, 210 32 M178 0 C199.33 0, 210 10.67, 210 32 M210 32 C210 56.14, 210 80.29, 210 143 M210 32 C210 75.24, 210 118.47, 210 143 M210 143 C210 164.33, 199.33 175, 178 175 M210 143 C210 164.33, 199.33 175, 178 175 M178 175 C146.51 175, 115.02 175, 32 175 M178 175 C146.49 175, 114.98 175, 32 175 M32 175 C10.67 175, 0 164.33, 0 143 M32 175 C10.67 175, 0 164.33, 0 143 M0 143 C0 111.16, 0 79.33, 0 32 M0 143 C0 112.32, 0 81.64, 0 32 M0 32 C0 10.67, 10.67 0, 32 0 M0 32 C0 10.67, 10.67 0, 32 0" stroke="#1b5e20" stroke-width="2" fill="none"></path></g><g transform="translate(1054.762006487165 270.1903599330358) rotate(0 105 9)"><text x="105" y="9.84521484375" font-family="Helvetica, Segoe UI Emoji" font-size="11px" fill="#1b5e20" text-anchor="middle" style="white-space: pre;" direction="ltr" dominant-baseline="alphabetic">az-spk2 — 10.0.2.0/24</text></g><g stroke-linecap="round" transform="translate(1072.155871899097 306.1903599330358) rotate(0 87 55)"><path d="M27.5 0 C53.68 0, 79.86 0, 146.5 0 C164.83 0, 174 9.17, 174 27.5 C174 45.39, 174 63.29, 174 82.5 C174 100.83, 164.83 110, 146.5 110 C106.58 110, 66.67 110, 27.5 110 C9.17 110, 0 100.83, 0 82.5 C0 69.12, 0 55.74, 0 27.5 C0 9.17, 9.17 0, 27.5 0" stroke="none" stroke-width="0" fill="#c8e6c9"></path><path d="M27.5 0 C51.3 0, 75.1 0, 146.5 0 M27.5 0 C59.87 0, 92.23 0, 146.5 0 M146.5 0 C164.83 0, 174 9.17, 174 27.5 M146.5 0 C164.83 0, 174 9.17, 174 27.5 M174 27.5 C174 39.46, 174 51.43, 174 82.5 M174 27.5 C174 48.92, 174 70.35, 174 82.5 M174 82.5 C174 100.83, 164.83 110, 146.5 110 M174 82.5 C174 100.83, 164.83 110, 146.5 110 M146.5 110 C120.83 110, 95.17 110, 27.5 110 M146.5 110 C120.82 110, 95.13 110, 27.5 110 M27.5 110 C9.17 110, 0 100.83, 0 82.5 M27.5 110 C9.17 110, 0 100.83, 0 82.5 M0 82.5 C0 66.73, 0 50.95, 0 27.5 M0 82.5 C0 67.3, 0 52.09, 0 27.5 M0 27.5 C0 9.17, 9.17 0, 27.5 0 M0 27.5 C0 9.17, 9.17 0, 27.5 0" stroke="#1b5e20" stroke-width="1" fill="none"></path></g><g transform="translate(1123.575971330915 331.1903599330358) rotate(0 36.18603515625 17.5)"><text x="36.18603515625" y="12.5302734375" font-family="Helvetica, Segoe UI Emoji" font-size="14px" fill="#1b5e20" text-anchor="middle" style="white-space: pre;" direction="ltr" dominant-baseline="alphabetic">Spoke2 VM</text><text x="36.18603515625" y="30.0302734375" font-family="Helvetica, Segoe UI Emoji" font-size="14px" fill="#1b5e20" text-anchor="middle" style="white-space: pre;" direction="ltr" dominant-baseline="alphabetic">10.0.2.4</text></g><g stroke-linecap="round"><g transform="translate(193.99999999999997 151.14241715963314) rotate(0 62.3672408984004 1.8854878517156592)"><path d="M0 0 C20.79 0.63, 103.95 3.14, 124.73 3.77 M0 0 C20.79 0.63, 103.95 3.14, 124.73 3.77" stroke="#555555" stroke-width="2" fill="none"></path></g><g transform="translate(193.99999999999997 151.14241715963314) rotate(0 62.3672408984004 1.8854878517156592)"><path d="M100.99 11.61 C105.74 10.04, 110.49 8.47, 124.73 3.77 M100.99 11.61 C107.45 9.48, 113.91 7.34, 124.73 3.77" stroke="#555555" stroke-width="2" fill="none"></path></g><g transform="translate(193.99999999999997 151.14241715963314) rotate(0 62.3672408984004 1.8854878517156592)"><path d="M101.51 -5.49 C106.16 -3.63, 110.8 -1.78, 124.73 3.77 M101.51 -5.49 C107.83 -2.97, 114.14 -0.45, 124.73 3.77" stroke="#555555" stroke-width="2" fill="none"></path></g></g><mask></mask><g stroke-linecap="round"><g transform="translate(414.4200146012663 148.17077819487207) rotate(0 98.98054881683336 -1.752084828462813)"><path d="M0 0 C32.99 -0.58, 164.97 -2.92, 197.96 -3.5 M0 0 C32.99 -0.58, 164.97 -2.92, 197.96 -3.5" stroke="#555555" stroke-width="2" fill="none"></path></g><g transform="translate(414.4200146012663 148.17077819487207) rotate(0 98.98054881683336 -1.752084828462813)"><path d="M174.62 5.46 C179.29 3.67, 183.96 1.87, 197.96 -3.5 M174.62 5.46 C180.97 3.02, 187.32 0.58, 197.96 -3.5" stroke="#555555" stroke-width="2" fill="none"></path></g><g transform="translate(414.4200146012663 148.17077819487207) rotate(0 98.98054881683336 -1.752084828462813)"><path d="M174.32 -11.64 C179.05 -10.01, 183.78 -8.38, 197.96 -3.5 M174.32 -11.64 C180.75 -9.43, 187.18 -7.21, 197.96 -3.5" stroke="#555555" stroke-width="2" fill="none"></path></g></g><mask></mask><g stroke-opacity="0.9" fill-opacity="0.9" transform="translate(323.131663978323 190.9026147912527) rotate(0 36 14)"><text x="36" y="8.9501953125" font-family="Helvetica, Segoe UI Emoji" font-size="10px" fill="#555555" text-anchor="middle" style="white-space: pre;" direction="ltr" dominant-baseline="alphabetic">Private</text><text x="36" y="21.4501953125" font-family="Helvetica, Segoe UI Emoji" font-size="10px" fill="#555555" text-anchor="middle" style="white-space: pre;" direction="ltr" dominant-baseline="alphabetic">Peering</text></g><g stroke-linecap="round"><g transform="translate(906.1387249835127 223.81327888631122) rotate(0 79.12823625596707 -54.319564532181616)"><path d="M0 0 C26.38 -18.11, 131.88 -90.53, 158.26 -108.64 M0 0 C26.38 -18.11, 131.88 -90.53, 158.26 -108.64" stroke="#555555" stroke-width="2" fill="none"></path></g><g transform="translate(906.1387249835127 223.81327888631122) rotate(0 79.12823625596707 -54.319564532181616)"><path d="M14.53 -20.34 C11.62 -16.28, 8.72 -12.21, 0 0 M14.53 -20.34 C10.58 -14.81, 6.63 -9.28, 0 0" stroke="#555555" stroke-width="2" fill="none"></path></g><g transform="translate(906.1387249835127 223.81327888631122) rotate(0 79.12823625596707 -54.319564532181616)"><path d="M24.21 -6.25 C19.37 -5, 14.52 -3.75, 0 0 M24.21 -6.25 C17.62 -4.55, 11.04 -2.85, 0 0" stroke="#555555" stroke-width="2" fill="none"></path></g><g transform="translate(906.1387249835127 223.81327888631122) rotate(0 79.12823625596707 -54.319564532181616)"><path d="M143.73 -88.29 C146.63 -92.36, 149.54 -96.43, 158.26 -108.64 M143.73 -88.29 C147.68 -93.83, 151.63 -99.36, 158.26 -108.64" stroke="#555555" stroke-width="2" fill="none"></path></g><g transform="translate(906.1387249835127 223.81327888631122) rotate(0 79.12823625596707 -54.319564532181616)"><path d="M134.05 -102.39 C138.89 -103.64, 143.73 -104.89, 158.26 -108.64 M134.05 -102.39 C140.63 -104.09, 147.22 -105.79, 158.26 -108.64" stroke="#555555" stroke-width="2" fill="none"></path></g></g><mask></mask><g stroke-linecap="round"><g transform="translate(905.2001636202522 262.93156706235675) rotate(0 75.56912118325585 43.73868746066249)"><path d="M0 0 C6.64 4.17, 26.5 16.9, 39.83 25.03 C53.17 33.15, 61.46 38.33, 80.01 48.74 C98.56 59.14, 139.28 81.02, 151.14 87.48 M0 0 C6.64 4.17, 26.5 16.9, 39.83 25.03 C53.17 33.15, 61.46 38.33, 80.01 48.74 C98.56 59.14, 139.28 81.02, 151.14 87.48" stroke="#555555" stroke-width="2" fill="none"></path></g><g transform="translate(905.2001636202522 262.93156706235675) rotate(0 75.56912118325585 43.73868746066249)"><path d="M22.98 5.02 C18.38 4.01, 13.79 3.01, 0 0 M22.98 5.02 C16.73 3.65, 10.48 2.29, 0 0" stroke="#555555" stroke-width="2" fill="none"></path></g><g transform="translate(905.2001636202522 262.93156706235675) rotate(0 75.56912118325585 43.73868746066249)"><path d="M14.38 18.61 C11.5 14.89, 8.63 11.17, 0 0 M14.38 18.61 C10.47 13.55, 6.56 8.49, 0 0" stroke="#555555" stroke-width="2" fill="none"></path></g><g transform="translate(905.2001636202522 262.93156706235675) rotate(0 75.56912118325585 43.73868746066249)"><path d="M126.41 83.81 C131.35 84.55, 136.3 85.28, 151.14 87.48 M126.41 83.81 C133.13 84.81, 139.86 85.81, 151.14 87.48" stroke="#555555" stroke-width="2" fill="none"></path></g><g transform="translate(905.2001636202522 262.93156706235675) rotate(0 75.56912118325585 43.73868746066249)"><path d="M134.55 68.77 C137.87 72.52, 141.18 76.26, 151.14 87.48 M134.55 68.77 C139.06 73.86, 143.57 78.95, 151.14 87.48" stroke="#555555" stroke-width="2" fill="none"></path></g></g><mask></mask><g stroke-opacity="0.9" fill-opacity="0.9" transform="translate(940.2296340744215 315.3030554040686) rotate(29.946508138799462 32.5 8)"><text x="32.5" y="8.05517578125" font-family="Helvetica, Segoe UI Emoji" font-size="9px" fill="#555555" text-anchor="middle" style="white-space: pre;" direction="ltr" dominant-baseline="alphabetic">VNet Peering</text></g><g stroke-opacity="0.9" fill-opacity="0.9" transform="translate(943.6149549608106 152.1492792435023) rotate(325.0076277502521 32.49999999999994 8)"><text x="32.5" y="8.05517578125" font-family="Helvetica, Segoe UI Emoji" font-size="9px" fill="#555555" text-anchor="middle" style="white-space: pre;" direction="ltr" dominant-baseline="alphabetic">VNet Peering</text></g><g stroke-linecap="round"><g transform="translate(365.2642733825733 87.99172964426822) rotate(0 0 45.64008909950131)" fill-rule="evenodd"><path d="M0.68 1.97 L61.8 91.78 L-60.67 91.97 L-0.21 -1.07" stroke="none" stroke-width="0" fill="#a5d8ff" fill-rule="evenodd"></path><path d="M0 0 C21.5 32.78, 40.4 62.81, 60.33 91.28 M0 0 C18.59 27.26, 36.65 55.21, 60.33 91.28 M60.33 91.28 C14.7 92.4, -32.16 91.84, -60.33 91.28 M60.33 91.28 C21.58 89.2, -17.85 89.68, -60.33 91.28 M-60.33 91.28 C-44.27 66.06, -26.9 37.55, 0 0 M-60.33 91.28 C-36.37 55.89, -14.57 22.62, 0 0 M0 0 C0 0, 0 0, 0 0 M0 0 C0 0, 0 0, 0 0" stroke="#1971c2" stroke-width="1" fill="none"></path></g></g><mask></mask><g transform="translate(332.73448179680076 140.55850600078804) rotate(0 33.89146087106474 6.74509366632401)"><text x="33.89146087106473" y="9.659184914353048" font-family="Helvetica, Segoe UI Emoji" font-size="10.79214986611841px" fill="#1e1e1e" text-anchor="middle" style="white-space: pre;" direction="ltr" dominant-baseline="alphabetic">ExpressRoute</text></g><g transform="translate(346.16125704791693 156.55846240424785) rotate(0 17.138133122435306 7.560506771227708)"><text x="17.138133122435303" y="10.826881962234674" font-family="Helvetica, Segoe UI Emoji" font-size="12.096810833964328px" fill="#1e1e1e" text-anchor="middle" style="white-space: pre;" direction="ltr" dominant-baseline="alphabetic">Circuit</text></g></svg>