<svg version="1.1" xmlns="http://www.w3.org/2000/svg" viewBox="0 0 1548.5208468967035 768.8888549804688" width="1548.5208468967035" height="768.8888549804688"><!-- svg-source:excalidraw --><metadata></metadata><defs><style class="style-fonts">
      </style></defs><rect x="0" y="0" width="1548.5208468967035" height="768.8888549804688" fill="#f8f9fa"></rect><g stroke-linecap="round" transform="translate(36.11384630960123 108.51053201584585) rotate(0 97.5 145)"><path d="M32 0 C60.82 0, 89.64 0, 163 0 C184.33 0, 195 10.67, 195 32 C195 105.53, 195 179.06, 195 258 C195 279.33, 184.33 290, 163 290 C119.06 290, 75.12 290, 32 290 C10.67 290, 0 279.33, 0 258 C0 203.03, 0 148.06, 0 32 C0 10.67, 10.67 0, 32 0" stroke="none" stroke-width="0" fill="#fff3e0"></path><path d="M32 0 C58.2 0, 84.4 0, 163 0 M32 0 C67.63 0, 103.26 0, 163 0 M163 0 C184.33 0, 195 10.67, 195 32 M163 0 C184.33 0, 195 10.67, 195 32 M195 32 C195 81.16, 195 130.31, 195 258 M195 32 C195 120.03, 195 208.06, 195 258 M195 258 C195 279.33, 184.33 290, 163 290 M195 258 C195 279.33, 184.33 290, 163 290 M163 290 C134.75 290, 106.49 290, 32 290 M163 290 C134.73 290, 106.46 290, 32 290 M32 290 C10.67 290, 0 279.33, 0 258 M32 290 C10.67 290, 0 279.33, 0 258 M0 258 C0 193.18, 0 128.36, 0 32 M0 258 C0 195.53, 0 133.06, 0 32 M0 32 C0 10.67, 10.67 0, 32 0 M0 32 C0 10.67, 10.67 0, 32 0" stroke="#e65100" stroke-width="2" fill="none"></path></g><g transform="translate(46.11384630960123 116.51053201584585) rotate(0 87.5 10)"><text x="87.5" y="11.63525390625" font-family="Helvetica, Segoe UI Emoji" font-size="13px" fill="#e65100" text-anchor="middle" style="white-space: pre;" direction="ltr" dominant-baseline="alphabetic">On-Premises (GCP)</text></g><g transform="translate(46.11384630960123 134.51053201584585) rotate(0 87.5 8)"><text x="87.5" y="9.84521484375" font-family="Helvetica, Segoe UI Emoji" font-size="11px" fill="#e65100" text-anchor="middle" style="white-space: pre;" direction="ltr" dominant-baseline="alphabetic">192.168.0.0/24</text></g><g stroke-linecap="round" transform="translate(51.11384630960123 193.51053201584585) rotate(0 82.5 40)"><path d="M20 0 C47.5 0, 75 0, 145 0 C158.33 0, 165 6.67, 165 20 C165 33.01, 165 46.03, 165 60 C165 73.33, 158.33 80, 145 80 C103.07 80, 61.14 80, 20 80 C6.67 80, 0 73.33, 0 60 C0 50.27, 0 40.54, 0 20 C0 6.67, 6.67 0, 20 0" stroke="none" stroke-width="0" fill="#ffe0b2"></path><path d="M20 0 C45 0, 70 0, 145 0 M20 0 C54 0, 88 0, 145 0 M145 0 C158.33 0, 165 6.67, 165 20 M145 0 C158.33 0, 165 6.67, 165 20 M165 20 C165 28.7, 165 37.4, 165 60 M165 20 C165 35.58, 165 51.16, 165 60 M165 60 C165 73.33, 158.33 80, 145 80 M165 60 C165 73.33, 158.33 80, 145 80 M145 80 C118.04 80, 91.08 80, 20 80 M145 80 C118.02 80, 91.04 80, 20 80 M20 80 C6.67 80, 0 73.33, 0 60 M20 80 C6.67 80, 0 73.33, 0 60 M0 60 C0 48.53, 0 37.06, 0 20 M0 60 C0 48.94, 0 37.89, 0 20 M0 20 C0 6.67, 6.67 0, 20 0 M0 20 C0 6.67, 6.67 0, 20 0" stroke="#e65100" stroke-width="1" fill="none"></path></g><g transform="translate(51.11384630960123 215.51053201584585) rotate(0 82.5 10)"><text x="82.5" y="12.5302734375" font-family="Helvetica, Segoe UI Emoji" font-size="14px" fill="#bf360c" text-anchor="middle" style="white-space: pre;" direction="ltr" dominant-baseline="alphabetic">GCP VM</text></g><g transform="translate(51.11384630960123 237.51053201584585) rotate(0 82.5 8)"><text x="82.5" y="9.84521484375" font-family="Helvetica, Segoe UI Emoji" font-size="11px" fill="#e65100" text-anchor="middle" style="white-space: pre;" direction="ltr" dominant-baseline="alphabetic">192.168.0.x</text></g><g stroke-opacity="0.4" fill-opacity="0.4" stroke-linecap="round" transform="translate(580.7604894156406 123.2075241716392) rotate(0 385 307.0111134847005)"><path d="M32 0 C187.31 0, 342.62 0, 738 0 C759.33 0, 770 10.67, 770 32 C770 210.95, 770 389.91, 770 582.02 C770 603.36, 759.33 614.02, 738 614.02 C501.19 614.02, 264.38 614.02, 32 614.02 C10.67 614.02, 0 603.36, 0 582.02 C0 448.23, 0 314.45, 0 32 C0 10.67, 10.67 0, 32 0" stroke="none" stroke-width="0" fill="#e3f2fd"></path><path d="M32 0 C173.2 0, 314.41 0, 738 0 M32 0 C224.03 0, 416.06 0, 738 0 M738 0 C759.33 0, 770 10.67, 770 32 M738 0 C759.33 0, 770 10.67, 770 32 M770 32 C770 151.63, 770 271.26, 770 582.02 M770 32 C770 246.25, 770 460.49, 770 582.02 M770 582.02 C770 603.36, 759.33 614.02, 738 614.02 M770 582.02 C770 603.36, 759.33 614.02, 738 614.02 M738 614.02 C585.74 614.02, 433.47 614.02, 32 614.02 M738 614.02 C585.63 614.02, 433.26 614.02, 32 614.02 M32 614.02 C10.67 614.02, 0 603.36, 0 582.02 M32 614.02 C10.67 614.02, 0 603.36, 0 582.02 M0 582.02 C0 424.27, 0 266.52, 0 32 M0 582.02 C0 429.99, 0 277.95, 0 32 M0 32 C0 10.67, 10.67 0, 32 0 M0 32 C0 10.67, 10.67 0, 32 0" stroke="#1565c0" stroke-width="2" fill="none"></path></g><g transform="translate(628.8125484406002 133.08187339419402) rotate(0 385 10)"><text x="385" y="12.5302734375" font-family="Helvetica, Segoe UI Emoji" font-size="14px" fill="#1565c0" text-anchor="middle" style="white-space: pre;" direction="ltr" dominant-baseline="alphabetic">Azure — West US 3</text></g><g stroke-linecap="round" transform="translate(637.3838898189482 165.17714055379224) rotate(0 152.5 222.5000762939453)"><path d="M32 0 C85.02 0, 138.03 0, 273 0 C294.33 0, 305 10.67, 305 32 C305 155.96, 305 279.92, 305 413 C305 434.33, 294.33 445, 273 445 C192.16 445, 111.33 445, 32 445 C10.67 445, 0 434.33, 0 413 C0 320.33, 0 227.65, 0 32 C0 10.67, 10.67 0, 32 0" stroke="none" stroke-width="0" fill="#ede7f6"></path><path d="M32 0 C80.2 0, 128.4 0, 273 0 M32 0 C97.55 0, 163.1 0, 273 0 M273 0 C294.33 0, 305 10.67, 305 32 M273 0 C294.33 0, 305 10.67, 305 32 M305 32 C305 114.87, 305 197.74, 305 413 M305 32 C305 180.41, 305 328.82, 305 413 M305 413 C305 434.33, 294.33 445, 273 445 M305 413 C305 434.33, 294.33 445, 273 445 M273 445 C221.02 445, 169.05 445, 32 445 M273 445 C220.99 445, 168.97 445, 32 445 M32 445 C10.67 445, 0 434.33, 0 413 M32 445 C10.67 445, 0 434.33, 0 413 M0 413 C0 303.73, 0 194.45, 0 32 M0 413 C0 307.69, 0 202.37, 0 32 M0 32 C0 10.67, 10.67 0, 32 0 M0 32 C0 10.67, 10.67 0, 32 0" stroke="#4527a0" stroke-width="2" fill="none"></path></g><g transform="translate(637.3838898189482 174.17714055379224) rotate(0 152.5 9)"><text x="152.5" y="10.740234375" font-family="Helvetica, Segoe UI Emoji" font-size="12px" fill="#4527a0" text-anchor="middle" style="white-space: pre;" direction="ltr" dominant-baseline="alphabetic">Hub VNet — 10.0.0.0/24</text></g><g stroke-linecap="round" transform="translate(654.3838898189482 207.17714055379224) rotate(0 135.5 36)"><path d="M18 0 C69.7 0, 121.39 0, 253 0 C265 0, 271 6, 271 18 C271 29.71, 271 41.43, 271 54 C271 66, 265 72, 253 72 C174.18 72, 95.35 72, 18 72 C6 72, 0 66, 0 54 C0 45.24, 0 36.49, 0 18 C0 6, 6 0, 18 0" stroke="none" stroke-width="0" fill="#d1c4e9"></path><path d="M18 0 C65 0, 112 0, 253 0 M18 0 C81.92 0, 145.84 0, 253 0 M253 0 C265 0, 271 6, 271 18 M253 0 C265 0, 271 6, 271 18 M271 18 C271 25.83, 271 33.66, 271 54 M271 18 C271 32.02, 271 46.05, 271 54 M271 54 C271 66, 265 72, 253 72 M271 54 C271 66, 265 72, 253 72 M253 72 C202.32 72, 151.63 72, 18 72 M253 72 C202.28 72, 151.56 72, 18 72 M18 72 C6 72, 0 66, 0 54 M18 72 C6 72, 0 66, 0 54 M0 54 C0 43.67, 0 33.35, 0 18 M0 54 C0 44.05, 0 34.1, 0 18 M0 18 C0 6, 6 0, 18 0 M0 18 C0 6, 6 0, 18 0" stroke="#4527a0" stroke-width="1" fill="none"></path></g><g transform="translate(750.5909210689482 225.17714055379224) rotate(0 39.29296875 8.75)"><text x="39.29296875" y="12.5302734375" font-family="Helvetica, Segoe UI Emoji" font-size="14px" fill="#311b92" text-anchor="middle" style="white-space: pre;" direction="ltr" dominant-baseline="alphabetic">ER Gateway</text></g><g transform="translate(754.2914012121774 247.97715886433912) rotate(0 34.93190348148346 10.074996948242188)"><text x="34.93190348148346" y="14.427710473537445" font-family="Helvetica, Segoe UI Emoji" font-size="16.1199951171875px" fill="#4527a0" text-anchor="middle" style="white-space: pre;" direction="ltr" dominant-baseline="alphabetic">ErGw1AZ</text></g><g stroke-linecap="round" transform="translate(654.3837880936879 408.7770957946776) rotate(0 134.11114501953125 38.64444986979166)"><path d="M19.32 0 C69.83 0, 120.33 0, 248.9 0 C261.78 0, 268.22 6.44, 268.22 19.32 C268.22 31.9, 268.22 44.47, 268.22 57.97 C268.22 70.85, 261.78 77.29, 248.9 77.29 C171.89 77.29, 94.89 77.29, 19.32 77.29 C6.44 77.29, 0 70.85, 0 57.97 C0 48.57, 0 39.17, 0 19.32 C0 6.44, 6.44 0, 19.32 0" stroke="none" stroke-width="0" fill="#d1c4e9"></path><path d="M19.32 0 C65.24 0, 111.16 0, 248.9 0 M19.32 0 C81.77 0, 144.21 0, 248.9 0 M248.9 0 C261.78 0, 268.22 6.44, 268.22 19.32 M248.9 0 C261.78 0, 268.22 6.44, 268.22 19.32 M268.22 19.32 C268.22 27.73, 268.22 36.13, 268.22 57.97 M268.22 19.32 C268.22 34.38, 268.22 49.43, 268.22 57.97 M268.22 57.97 C268.22 70.85, 261.78 77.29, 248.9 77.29 M268.22 57.97 C268.22 70.85, 261.78 77.29, 248.9 77.29 M248.9 77.29 C199.39 77.29, 149.87 77.29, 19.32 77.29 M248.9 77.29 C199.35 77.29, 149.8 77.29, 19.32 77.29 M19.32 77.29 C6.44 77.29, 0 70.85, 0 57.97 M19.32 77.29 C6.44 77.29, 0 70.85, 0 57.97 M0 57.97 C0 46.88, 0 35.8, 0 19.32 M0 57.97 C0 47.28, 0 36.6, 0 19.32 M0 19.32 C0 6.44, 6.44 0, 19.32 0 M0 19.32 C0 6.44, 6.44 0, 19.32 0" stroke="#4527a0" stroke-width="1" fill="none"></path></g><g transform="translate(652.1618032304067 427.62161890665686) rotate(0 135.5 10)"><text x="135.5" y="12.5302734375" font-family="Helvetica, Segoe UI Emoji" font-size="14px" fill="#311b92" text-anchor="middle" style="white-space: pre;" direction="ltr" dominant-baseline="alphabetic">Azure Bastion</text></g><g transform="translate(651.6060781327502 453.17714055379224) rotate(0 135.5 8)"><text x="135.5" y="9.84521484375" font-family="Helvetica, Segoe UI Emoji" font-size="11px" fill="#4527a0" text-anchor="middle" style="white-space: pre;" direction="ltr" dominant-baseline="alphabetic">No-Public-IP VM Access</text></g><g stroke-linecap="round" transform="translate(654.9394114660837 499.6215680440266) rotate(0 135.5 44)"><path d="M22 0 C71.94 0, 121.87 0, 249 0 C263.67 0, 271 7.33, 271 22 C271 36.32, 271 50.63, 271 66 C271 80.67, 263.67 88, 249 88 C172.86 88, 96.72 88, 22 88 C7.33 88, 0 80.67, 0 66 C0 55.3, 0 44.59, 0 22 C0 7.33, 7.33 0, 22 0" stroke="none" stroke-width="0" fill="#d1c4e9"></path><path d="M22 0 C67.4 0, 112.8 0, 249 0 M22 0 C83.74 0, 145.49 0, 249 0 M249 0 C263.67 0, 271 7.33, 271 22 M249 0 C263.67 0, 271 7.33, 271 22 M271 22 C271 31.57, 271 41.14, 271 66 M271 22 C271 39.14, 271 56.28, 271 66 M271 66 C271 80.67, 263.67 88, 249 88 M271 66 C271 80.67, 263.67 88, 249 88 M249 88 C200.04 88, 151.08 88, 22 88 M249 88 C200.01 88, 151.02 88, 22 88 M22 88 C7.33 88, 0 80.67, 0 66 M22 88 C7.33 88, 0 80.67, 0 66 M0 66 C0 53.38, 0 40.76, 0 22 M0 66 C0 53.84, 0 41.68, 0 22 M0 22 C0 7.33, 7.33 0, 22 0 M0 22 C0 7.33, 7.33 0, 22 0" stroke="#4527a0" stroke-width="1" fill="none"></path></g><g transform="translate(765.139708503844 524.2882855733235) rotate(0 25.2998046875 17.5)"><text x="25.2998046875" y="12.5302734375" font-family="Helvetica, Segoe UI Emoji" font-size="14px" fill="#311b92" text-anchor="middle" style="white-space: pre;" direction="ltr" dominant-baseline="alphabetic">Hub VM</text><text x="25.2998046875" y="30.0302734375" font-family="Helvetica, Segoe UI Emoji" font-size="14px" fill="#311b92" text-anchor="middle" style="white-space: pre;" direction="ltr" dominant-baseline="alphabetic">10.0.0.4</text></g><g stroke-linecap="round" transform="translate(1104.2021826101413 140.9348087888775) rotate(0 105 95)"><path d="M32 0 C64.12 0, 96.24 0, 178 0 C199.33 0, 210 10.67, 210 32 C210 72.99, 210 113.99, 210 158 C210 179.33, 199.33 190, 178 190 C129.03 190, 80.06 190, 32 190 C10.67 190, 0 179.33, 0 158 C0 127.35, 0 96.7, 0 32 C0 10.67, 10.67 0, 32 0" stroke="none" stroke-width="0" fill="#e8f5e9"></path><path d="M32 0 C61.2 0, 90.4 0, 178 0 M32 0 C71.71 0, 111.42 0, 178 0 M178 0 C199.33 0, 210 10.67, 210 32 M178 0 C199.33 0, 210 10.67, 210 32 M210 32 C210 59.41, 210 86.81, 210 158 M210 32 C210 81.08, 210 130.16, 210 158 M210 158 C210 179.33, 199.33 190, 178 190 M210 158 C210 179.33, 199.33 190, 178 190 M178 190 C146.51 190, 115.02 190, 32 190 M178 190 C146.49 190, 114.98 190, 32 190 M32 190 C10.67 190, 0 179.33, 0 158 M32 190 C10.67 190, 0 179.33, 0 158 M0 158 C0 121.86, 0 85.72, 0 32 M0 158 C0 123.17, 0 88.34, 0 32 M0 32 C0 10.67, 10.67 0, 32 0 M0 32 C0 10.67, 10.67 0, 32 0" stroke="#1b5e20" stroke-width="2" fill="none"></path></g><g transform="translate(1104.2020716371298 150.5408324039343) rotate(0 105 9)"><text x="105" y="9.84521484375" font-family="Helvetica, Segoe UI Emoji" font-size="11px" fill="#1b5e20" text-anchor="middle" style="white-space: pre;" direction="ltr" dominant-baseline="alphabetic">az-spk1 — 10.0.1.0/24</text></g><g stroke-linecap="round" transform="translate(1122.2020716371298 191.5408324039343) rotate(0 87 55)"><path d="M27.5 0 C53.68 0, 79.86 0, 146.5 0 C164.83 0, 174 9.17, 174 27.5 C174 45.39, 174 63.29, 174 82.5 C174 100.83, 164.83 110, 146.5 110 C106.58 110, 66.67 110, 27.5 110 C9.17 110, 0 100.83, 0 82.5 C0 69.12, 0 55.74, 0 27.5 C0 9.17, 9.17 0, 27.5 0" stroke="none" stroke-width="0" fill="#c8e6c9"></path><path d="M27.5 0 C51.3 0, 75.1 0, 146.5 0 M27.5 0 C59.87 0, 92.23 0, 146.5 0 M146.5 0 C164.83 0, 174 9.17, 174 27.5 M146.5 0 C164.83 0, 174 9.17, 174 27.5 M174 27.5 C174 39.46, 174 51.43, 174 82.5 M174 27.5 C174 48.92, 174 70.35, 174 82.5 M174 82.5 C174 100.83, 164.83 110, 146.5 110 M174 82.5 C174 100.83, 164.83 110, 146.5 110 M146.5 110 C120.83 110, 95.17 110, 27.5 110 M146.5 110 C120.82 110, 95.13 110, 27.5 110 M27.5 110 C9.17 110, 0 100.83, 0 82.5 M27.5 110 C9.17 110, 0 100.83, 0 82.5 M0 82.5 C0 66.73, 0 50.95, 0 27.5 M0 82.5 C0 67.3, 0 52.09, 0 27.5 M0 27.5 C0 9.17, 9.17 0, 27.5 0 M0 27.5 C0 9.17, 9.17 0, 27.5 0" stroke="#1b5e20" stroke-width="1" fill="none"></path></g><g transform="translate(1173.0160364808798 216.5408324039343) rotate(0 36.18603515625 17.5)"><text x="36.18603515625" y="12.5302734375" font-family="Helvetica, Segoe UI Emoji" font-size="14px" fill="#1b5e20" text-anchor="middle" style="white-space: pre;" direction="ltr" dominant-baseline="alphabetic">Spoke1 VM</text><text x="36.18603515625" y="30.0302734375" font-family="Helvetica, Segoe UI Emoji" font-size="14px" fill="#1b5e20" text-anchor="middle" style="white-space: pre;" direction="ltr" dominant-baseline="alphabetic">10.0.1.4</text></g><g stroke-linecap="round" transform="translate(1094.7647840711802 359.7008919488816) rotate(0 105 87.5)"><path d="M32 0 C64.12 0, 96.24 0, 178 0 C199.33 0, 210 10.67, 210 32 C210 68.11, 210 104.23, 210 143 C210 164.33, 199.33 175, 178 175 C129.03 175, 80.06 175, 32 175 C10.67 175, 0 164.33, 0 143 C0 116, 0 89, 0 32 C0 10.67, 10.67 0, 32 0" stroke="none" stroke-width="0" fill="#e8f5e9"></path><path d="M32 0 C61.2 0, 90.4 0, 178 0 M32 0 C71.71 0, 111.42 0, 178 0 M178 0 C199.33 0, 210 10.67, 210 32 M178 0 C199.33 0, 210 10.67, 210 32 M210 32 C210 56.14, 210 80.29, 210 143 M210 32 C210 75.24, 210 118.47, 210 143 M210 143 C210 164.33, 199.33 175, 178 175 M210 143 C210 164.33, 199.33 175, 178 175 M178 175 C146.51 175, 115.02 175, 32 175 M178 175 C146.49 175, 114.98 175, 32 175 M32 175 C10.67 175, 0 164.33, 0 143 M32 175 C10.67 175, 0 164.33, 0 143 M0 143 C0 111.16, 0 79.33, 0 32 M0 143 C0 112.32, 0 81.64, 0 32 M0 32 C0 10.67, 10.67 0, 32 0 M0 32 C0 10.67, 10.67 0, 32 0" stroke="#1b5e20" stroke-width="2" fill="none"></path></g><g transform="translate(1094.7647840711802 368.7008919488816) rotate(0 105 9)"><text x="105" y="9.84521484375" font-family="Helvetica, Segoe UI Emoji" font-size="11px" fill="#1b5e20" text-anchor="middle" style="white-space: pre;" direction="ltr" dominant-baseline="alphabetic">az-spk2 — 10.0.2.0/24</text></g><g stroke-linecap="round" transform="translate(1112.1586494831122 404.7008919488816) rotate(0 87 55)"><path d="M27.5 0 C53.68 0, 79.86 0, 146.5 0 C164.83 0, 174 9.17, 174 27.5 C174 45.39, 174 63.29, 174 82.5 C174 100.83, 164.83 110, 146.5 110 C106.58 110, 66.67 110, 27.5 110 C9.17 110, 0 100.83, 0 82.5 C0 69.12, 0 55.74, 0 27.5 C0 9.17, 9.17 0, 27.5 0" stroke="none" stroke-width="0" fill="#c8e6c9"></path><path d="M27.5 0 C51.3 0, 75.1 0, 146.5 0 M27.5 0 C59.87 0, 92.23 0, 146.5 0 M146.5 0 C164.83 0, 174 9.17, 174 27.5 M146.5 0 C164.83 0, 174 9.17, 174 27.5 M174 27.5 C174 39.46, 174 51.43, 174 82.5 M174 27.5 C174 48.92, 174 70.35, 174 82.5 M174 82.5 C174 100.83, 164.83 110, 146.5 110 M174 82.5 C174 100.83, 164.83 110, 146.5 110 M146.5 110 C120.83 110, 95.17 110, 27.5 110 M146.5 110 C120.82 110, 95.13 110, 27.5 110 M27.5 110 C9.17 110, 0 100.83, 0 82.5 M27.5 110 C9.17 110, 0 100.83, 0 82.5 M0 82.5 C0 66.73, 0 50.95, 0 27.5 M0 82.5 C0 67.3, 0 52.09, 0 27.5 M0 27.5 C0 9.17, 9.17 0, 27.5 0 M0 27.5 C0 9.17, 9.17 0, 27.5 0" stroke="#1b5e20" stroke-width="1" fill="none"></path></g><g transform="translate(1163.5787489149302 429.7008919488816) rotate(0 36.18603515625 17.5)"><text x="36.18603515625" y="12.5302734375" font-family="Helvetica, Segoe UI Emoji" font-size="14px" fill="#1b5e20" text-anchor="middle" style="white-space: pre;" direction="ltr" dominant-baseline="alphabetic">Spoke2 VM</text><text x="36.18603515625" y="30.0302734375" font-family="Helvetica, Segoe UI Emoji" font-size="14px" fill="#1b5e20" text-anchor="middle" style="white-space: pre;" direction="ltr" dominant-baseline="alphabetic">10.0.2.4</text></g><g stroke-linecap="round"><g transform="translate(220.1138463096012 246.4357181005853) rotate(0 69.31170653560737 -0.222530397960508)"><path d="M0 0 C23.1 -0.07, 115.52 -0.37, 138.62 -0.45 M0 0 C23.1 -0.07, 115.52 -0.37, 138.62 -0.45" stroke="#555555" stroke-width="2" fill="none"></path></g><g transform="translate(220.1138463096012 246.4357181005853) rotate(0 69.31170653560737 -0.222530397960508)"><path d="M115.16 8.18 C119.85 6.46, 124.54 4.73, 138.62 -0.45 M115.16 8.18 C121.54 5.83, 127.92 3.49, 138.62 -0.45" stroke="#555555" stroke-width="2" fill="none"></path></g><g transform="translate(220.1138463096012 246.4357181005853) rotate(0 69.31170653560737 -0.222530397960508)"><path d="M115.1 -8.92 C119.81 -7.23, 124.51 -5.53, 138.62 -0.45 M115.1 -8.92 C121.5 -6.61, 127.9 -4.31, 138.62 -0.45" stroke="#555555" stroke-width="2" fill="none"></path></g></g><mask></mask><g stroke-linecap="round"><g transform="translate(454.4227921852815 246.68131021071787) rotate(0 115.47005542186199 -0.6829777727987505)"><path d="M0 0 C38.49 -0.23, 192.45 -1.14, 230.94 -1.37 M0 0 C38.49 -0.23, 192.45 -1.14, 230.94 -1.37" stroke="#555555" stroke-width="2" fill="none"></path></g><g transform="translate(454.4227921852815 246.68131021071787) rotate(0 115.47005542186199 -0.6829777727987505)"><path d="M207.5 7.32 C212.19 5.59, 216.88 3.85, 230.94 -1.37 M207.5 7.32 C213.87 4.96, 220.25 2.6, 230.94 -1.37" stroke="#555555" stroke-width="2" fill="none"></path></g><g transform="translate(454.4227921852815 246.68131021071787) rotate(0 115.47005542186199 -0.6829777727987505)"><path d="M207.4 -9.78 C212.11 -8.1, 216.81 -6.41, 230.94 -1.37 M207.4 -9.78 C213.8 -7.49, 220.2 -5.2, 230.94 -1.37" stroke="#555555" stroke-width="2" fill="none"></path></g></g><mask></mask><g stroke-opacity="0.9" fill-opacity="0.9" transform="translate(363.13444156233817 289.4131468070985) rotate(0 36 14)"><text x="36" y="8.9501953125" font-family="Helvetica, Segoe UI Emoji" font-size="10px" fill="#555555" text-anchor="middle" style="white-space: pre;" direction="ltr" dominant-baseline="alphabetic">Private</text><text x="36" y="21.4501953125" font-family="Helvetica, Segoe UI Emoji" font-size="10px" fill="#555555" text-anchor="middle" style="white-space: pre;" direction="ltr" dominant-baseline="alphabetic">Peering</text></g><g stroke-linecap="round"><g transform="translate(948.3838898189482 320.95907496442885) rotate(0 84.38069723580554 -54.420851816881324)"><path d="M0 0 C28.13 -18.14, 140.63 -90.7, 168.76 -108.84 M0 0 C28.13 -18.14, 140.63 -90.7, 168.76 -108.84" stroke="#555555" stroke-width="2" fill="none"></path></g><g transform="translate(948.3838898189482 320.95907496442885) rotate(0 84.38069723580554 -54.420851816881324)"><path d="M15.11 -19.92 C12.09 -15.93, 9.06 -11.95, 0 0 M15.11 -19.92 C11 -14.5, 6.89 -9.08, 0 0" stroke="#555555" stroke-width="2" fill="none"></path></g><g transform="translate(948.3838898189482 320.95907496442885) rotate(0 84.38069723580554 -54.420851816881324)"><path d="M24.38 -5.55 C19.5 -4.44, 14.63 -3.33, 0 0 M24.38 -5.55 C17.75 -4.04, 11.12 -2.53, 0 0" stroke="#555555" stroke-width="2" fill="none"></path></g><g transform="translate(948.3838898189482 320.95907496442885) rotate(0 84.38069723580554 -54.420851816881324)"><path d="M153.65 -88.92 C156.67 -92.91, 159.7 -96.89, 168.76 -108.84 M153.65 -88.92 C157.76 -94.34, 161.87 -99.76, 168.76 -108.84" stroke="#555555" stroke-width="2" fill="none"></path></g><g transform="translate(948.3838898189482 320.95907496442885) rotate(0 84.38069723580554 -54.420851816881324)"><path d="M144.38 -103.29 C149.26 -104.4, 154.14 -105.51, 168.76 -108.84 M144.38 -103.29 C151.01 -104.8, 157.65 -106.31, 168.76 -108.84" stroke="#555555" stroke-width="2" fill="none"></path></g></g><mask></mask><g stroke-linecap="round"><g transform="translate(948.3838898189482 370.30659184648084) rotate(0 79.13737983208205 42.11621986939058)"><path d="M0 0 C6.11 2.69, 23.85 9.52, 36.65 16.16 C49.46 22.81, 56.56 28.53, 76.83 39.87 C97.1 51.22, 144.7 76.84, 158.27 84.23 M0 0 C6.11 2.69, 23.85 9.52, 36.65 16.16 C49.46 22.81, 56.56 28.53, 76.83 39.87 C97.1 51.22, 144.7 76.84, 158.27 84.23" stroke="#555555" stroke-width="2" fill="none"></path></g><g transform="translate(948.3838898189482 370.30659184648084) rotate(0 79.13737983208205 42.11621986939058)"><path d="M20 1.02 C16 0.81, 12 0.61, 0 0 M20 1.02 C14.56 0.74, 9.12 0.46, 0 0" stroke="#555555" stroke-width="2" fill="none"></path></g><g transform="translate(948.3838898189482 370.30659184648084) rotate(0 79.13737983208205 42.11621986939058)"><path d="M14.67 13.64 C11.73 10.91, 8.8 8.18, 0 0 M14.67 13.64 C10.68 9.93, 6.69 6.22, 0 0" stroke="#555555" stroke-width="2" fill="none"></path></g><g transform="translate(948.3838898189482 370.30659184648084) rotate(0 79.13737983208205 42.11621986939058)"><path d="M133.55 80.56 C138.49 81.29, 143.44 82.03, 158.27 84.23 M133.55 80.56 C140.27 81.56, 147 82.56, 158.27 84.23" stroke="#555555" stroke-width="2" fill="none"></path></g><g transform="translate(948.3838898189482 370.30659184648084) rotate(0 79.13737983208205 42.11621986939058)"><path d="M141.69 65.52 C145.01 69.27, 148.33 73.01, 158.27 84.23 M141.69 65.52 C146.2 70.61, 150.71 75.7, 158.27 84.23" stroke="#555555" stroke-width="2" fill="none"></path></g></g><mask></mask><g stroke-opacity="0.9" fill-opacity="0.9" transform="translate(980.2324116584367 413.81358741991437) rotate(29.946508138799462 32.5 8)"><text x="32.5" y="8.05517578125" font-family="Helvetica, Segoe UI Emoji" font-size="9px" fill="#555555" text-anchor="middle" style="white-space: pre;" direction="ltr" dominant-baseline="alphabetic">VNet Peering</text></g><g stroke-opacity="0.9" fill-opacity="0.9" transform="translate(983.6177325448257 250.6598112593481) rotate(325.0076277502521 32.49999999999994 8)"><text x="32.5" y="8.05517578125" font-family="Helvetica, Segoe UI Emoji" font-size="9px" fill="#555555" text-anchor="middle" style="white-space: pre;" direction="ltr" dominant-baseline="alphabetic">VNet Peering</text></g><g stroke-linecap="round"><g transform="translate(405.2670509665885 186.50226166011402) rotate(0 0 45.64008909950131)" fill-rule="evenodd"><path d="M0.68 1.97 L61.8 91.78 L-60.67 91.97 L-0.21 -1.07" stroke="none" stroke-width="0" fill="#a5d8ff" fill-rule="evenodd"></path><path d="M0 0 C21.5 32.78, 40.4 62.81, 60.33 91.28 M0 0 C18.59 27.26, 36.65 55.21, 60.33 91.28 M60.33 91.28 C14.7 92.4, -32.16 91.84, -60.33 91.28 M60.33 91.28 C21.58 89.2, -17.85 89.68, -60.33 91.28 M-60.33 91.28 C-44.27 66.06, -26.9 37.55, 0 0 M-60.33 91.28 C-36.37 55.89, -14.57 22.62, 0 0 M0 0 C0 0, 0 0, 0 0 M0 0 C0 0, 0 0, 0 0" stroke="#1971c2" stroke-width="1" fill="none"></path></g></g><mask></mask><g transform="translate(372.73725938081594 239.06903801663384) rotate(0 33.89146087106474 6.74509366632401)"><text x="33.89146087106473" y="9.659184914353048" font-family="Helvetica, Segoe UI Emoji" font-size="10.79214986611841px" fill="#1e1e1e" text-anchor="middle" style="white-space: pre;" direction="ltr" dominant-baseline="alphabetic">ExpressRoute</text></g><g transform="translate(386.1640346319321 255.06899442009365) rotate(0 17.138133122435306 7.560506771227708)"><text x="17.138133122435303" y="10.826881962234674" font-family="Helvetica, Segoe UI Emoji" font-size="12.096810833964328px" fill="#1e1e1e" text-anchor="middle" style="white-space: pre;" direction="ltr" dominant-baseline="alphabetic">Circuit</text></g><g stroke-linecap="round" transform="translate(654.2457759796624 320.9866934276762) rotate(0 135.5 36)"><path d="M18 0 C73.28 0, 128.56 0, 253 0 C265 0, 271 6, 271 18 C271 27.75, 271 37.5, 271 54 C271 66, 265 72, 253 72 C188.2 72, 123.4 72, 18 72 C6 72, 0 66, 0 54 C0 41.53, 0 29.05, 0 18 C0 6, 6 0, 18 0" stroke="none" stroke-width="0" fill="#ffd8a8"></path><path d="M18 0 C82.48 0, 146.95 0, 253 0 M18 0 C87.57 0, 157.14 0, 253 0 M253 0 C265 0, 271 6, 271 18 M253 0 C265 0, 271 6, 271 18 M271 18 C271 25.68, 271 33.36, 271 54 M271 18 C271 27.59, 271 37.18, 271 54 M271 54 C271 66, 265 72, 253 72 M271 54 C271 66, 265 72, 253 72 M253 72 C188.82 72, 124.64 72, 18 72 M253 72 C196.52 72, 140.04 72, 18 72 M18 72 C6 72, 0 66, 0 54 M18 72 C6 72, 0 66, 0 54 M0 54 C0 46.1, 0 38.2, 0 18 M0 54 C0 40.5, 0 27, 0 18 M0 18 C0 6, 6 0, 18 0 M0 18 C0 6, 6 0, 18 0" stroke="#f08c00" stroke-width="1" fill="none"></path></g><g transform="translate(743.9858653961663 355.68670563470744) rotate(0 40.286773681640625 10.074996948242188)"><text x="40.286773681640625" y="14.427710473537445" font-family="Helvetica, Segoe UI Emoji" font-size="16.1199951171875px" fill="#4527a0" text-anchor="middle" style="white-space: pre;" direction="ltr" dominant-baseline="alphabetic">ErGwScale</text></g><g transform="translate(679.0457027374749 331.8867178417387) rotate(0 104.29998779296875 8.75)"><text x="104.29998779296875" y="12.5302734375" font-family="Helvetica, Segoe UI Emoji" font-size="14px" fill="#311b92" text-anchor="middle" style="white-space: pre;" direction="ltr" dominant-baseline="alphabetic">ER Gateway</text></g><g transform="translate(763.3457210480218 290.88668732416056) rotate(0 31.025040318136632 10.699981689453125)"><text x="0" y="15.724684368009143" font-family="Helvetica, Segoe UI Emoji" font-size="18.608663807744556px" fill="#f08c00" text-anchor="start" style="white-space: pre;" direction="ltr" dominant-baseline="alphabetic">Migrate</text></g><g stroke-linecap="round"><g transform="translate(455.87563510858166 246.4696895110218) rotate(0 108.83503381444669 46.638894975370334)"><path d="M0 0 C36.28 15.55, 181.39 77.73, 217.67 93.28 M0 0 C36.28 15.55, 181.39 77.73, 217.67 93.28" stroke="#f08c00" stroke-width="2" fill="none"></path></g><g transform="translate(455.87563510858166 246.4696895110218) rotate(0 108.83503381444669 46.638894975370334)"><path d="M192.71 91.88 C199.21 92.25, 205.71 92.61, 217.67 93.28 M192.71 91.88 C199.59 92.27, 206.47 92.65, 217.67 93.28" stroke="#f08c00" stroke-width="2" fill="none"></path></g><g transform="translate(455.87563510858166 246.4696895110218) rotate(0 108.83503381444669 46.638894975370334)"><path d="M199.44 76.17 C204.19 80.62, 208.94 85.08, 217.67 93.28 M199.44 76.17 C204.47 80.88, 209.49 85.6, 217.67 93.28" stroke="#f08c00" stroke-width="2" fill="none"></path></g></g><mask></mask><g stroke-linecap="round"><g transform="translate(742.6176817648095 286.7549146134575) rotate(0 0.39996337890625 13.5999755859375)"><path d="M-0.11 -0.41 C-0.03 4.21, 0.35 22.94, 0.5 27.53 M0.83 0.57 C1.09 5.05, 1.64 22.22, 1.58 26.73" stroke="#f08c00" stroke-width="2" fill="none"></path></g><g transform="translate(742.6176817648095 286.7549146134575) rotate(0 0.39996337890625 13.5999755859375)"><path d="M-3.24 14.01 C-2.31 17.46, 0.04 21.67, 1.58 26.73 M-3.24 14.01 C-2.03 17.9, -0.54 21.22, 1.58 26.73" stroke="#f08c00" stroke-width="2" fill="none"></path></g><g transform="translate(742.6176817648095 286.7549146134575) rotate(0 0.39996337890625 13.5999755859375)"><path d="M6.07 13.89 C4.2 17.36, 3.77 21.61, 1.58 26.73 M6.07 13.89 C4.62 17.81, 3.45 21.17, 1.58 26.73" stroke="#f08c00" stroke-width="2" fill="none"></path></g></g><mask></mask><g stroke-linecap="round"><g transform="translate(838.6090405570994 285.0254435957054) rotate(0 0.39996337890625 13.5999755859375)"><path d="M0.53 0.48 C0.75 4.9, 1.22 22.23, 1.24 26.68 M0.13 0.24 C0.34 4.7, 1.02 22.52, 1.03 27.11" stroke="#f08c00" stroke-width="2" fill="none"></path></g><g transform="translate(838.6090405570994 285.0254435957054) rotate(0 0.39996337890625 13.5999755859375)"><path d="M-3.91 14.43 C-1.95 18.43, -1.83 21.15, 1.03 27.11 M-3.91 14.43 C-2.61 17.92, -0.76 21.92, 1.03 27.11" stroke="#f08c00" stroke-width="2" fill="none"></path></g><g transform="translate(838.6090405570994 285.0254435957054) rotate(0 0.39996337890625 13.5999755859375)"><path d="M5.39 14.22 C4.8 18.32, 2.37 21.1, 1.03 27.11 M5.39 14.22 C3.98 17.75, 3.1 21.82, 1.03 27.11" stroke="#f08c00" stroke-width="2" fill="none"></path></g></g><mask></mask><g stroke-linecap="round" transform="translate(629.7457149445062 629.7866812206449) rotate(0 346.3999938964844 45.600006103515625)"><path d="M22.8 0 C194.45 0, 366.1 0, 670 0 C685.2 0, 692.8 7.6, 692.8 22.8 C692.8 40.02, 692.8 57.24, 692.8 68.4 C692.8 83.6, 685.2 91.2, 670 91.2 C523.83 91.2, 377.65 91.2, 22.8 91.2 C7.6 91.2, 0 83.6, 0 68.4 C0 52.61, 0 36.82, 0 22.8 C0 7.6, 7.6 0, 22.8 0" stroke="none" stroke-width="0" fill="#ffffff"></path><path d="M22.8 0 C154.44 0, 286.08 0, 670 0 M22.8 0 C255.42 0, 488.04 0, 670 0 M670 0 C685.2 0, 692.8 7.6, 692.8 22.8 M670 0 C685.2 0, 692.8 7.6, 692.8 22.8 M692.8 22.8 C692.8 37.14, 692.8 51.48, 692.8 68.4 M692.8 22.8 C692.8 32.6, 692.8 42.39, 692.8 68.4 M692.8 68.4 C692.8 83.6, 685.2 91.2, 670 91.2 M692.8 68.4 C692.8 83.6, 685.2 91.2, 670 91.2 M670 91.2 C443.18 91.2, 216.36 91.2, 22.8 91.2 M670 91.2 C522.85 91.2, 375.71 91.2, 22.8 91.2 M22.8 91.2 C7.6 91.2, 0 83.6, 0 68.4 M22.8 91.2 C7.6 91.2, 0 83.6, 0 68.4 M0 68.4 C0 54.76, 0 41.11, 0 22.8 M0 68.4 C0 50.96, 0 33.52, 0 22.8 M0 22.8 C0 7.6, 7.6 0, 22.8 0 M0 22.8 C0 7.6, 7.6 0, 22.8 0" stroke="#6741d9" stroke-width="1" fill="none"></path></g><g transform="translate(912.1144588409906 634.7866812206449) rotate(0 64.03125 9.199999999999989)"><text x="64.03125" y="13.5203125" font-family="Helvetica, Segoe UI Emoji" font-size="16px" fill="#6741d9" text-anchor="middle" style="white-space: pre;" direction="ltr" dominant-baseline="alphabetic">Migration Phases:</text></g><g transform="translate(654.2856846893958 659.7866934276761) rotate(0 282.7178344726563 8.399981689453114)"><text x="282.71783447265625" y="12.344606243009142" font-family="Helvetica, Segoe UI Emoji" font-size="14.608663807744554px" fill="#1e1e1e" text-anchor="middle" style="white-space: pre;" direction="ltr" dominant-baseline="alphabetic">PREPARE - ErGwScale providioned alognside ErGW1AZ (no traffic impact, ~20-40min)</text></g><g transform="translate(653.0665767609124 678.1867483593168) rotate(0 275.07916259765625 8.399981689453114)"><text x="275.07916259765625" y="12.344606243009142" font-family="Helvetica, Segoe UI Emoji" font-size="14.608663807744554px" fill="#f08c00" text-anchor="middle" style="white-space: pre;" direction="ltr" dominant-baseline="alphabetic">EXECUTE - Connections transferred to ErGwScale; brief BGP reconvergence occurs</text></g><g transform="translate(652.9633663116937 698.1867483593168) rotate(0 267.982421875 8.399981689453114)"><text x="267.982421875" y="12.344606243009142" font-family="Helvetica, Segoe UI Emoji" font-size="14.608663807744554px" fill="#1e1e1e" text-anchor="middle" style="white-space: pre;" direction="ltr" dominant-baseline="alphabetic">COMMIT / ABORT - ErGW1AZ deleted (commit) or ErGWScale removed (rollback)</text></g><g transform="translate(42.222290039062614 28.777709960937386) rotate(0 748.1492784288205 11.22223917643231)"><text x="0" y="14.508178023828421" font-family="Helvetica, Segoe UI Emoji" font-size="16.209901032624444px" fill="#4527a0" text-anchor="start" style="white-space: pre;" direction="ltr" dominant-baseline="alphabetic">SCENARIO 2 — Customer-Controlled Gateway Migration  (prepareMigration → executeMigration → commitMigration / abortMigration)  |  scripts/4-scenario2-migrate-ergw.sh</text></g><g stroke-opacity="0.55" fill-opacity="0.55" stroke-linecap="round" transform="translate(10 10) rotate(0 680.833231608073 374.4444274902344)"><path d="M32 0 C316.86 0, 601.73 0, 1329.67 0 M1329.67 0 C1351 0, 1361.67 10.67, 1361.67 32 M1361.67 32 C1361.67 296.88, 1361.67 561.76, 1361.67 716.89 M1361.67 716.89 C1361.67 738.22, 1351 748.89, 1329.67 748.89 M1329.67 748.89 C978.01 748.89, 626.35 748.89, 32 748.89 M32 748.89 C10.67 748.89, 0 738.22, 0 716.89 M0 716.89 C0 554.27, 0 391.66, 0 32 M0 32 C0 10.67, 10.67 0, 32 0" stroke="#4527a0" stroke-width="3.5" fill="none" stroke-dasharray="8 11"></path></g></svg>